<?xml version="1.0" encoding="UTF-8"?>
<svg id="Layer_1" xmlns="http://www.w3.org/2000/svg" version="1.1" viewBox="0 0 256 256">
  <!-- Generator: Adobe Illustrator 29.7.1, SVG Export Plug-In . SVG Version: 2.1.1 Build 8)  -->
  <defs>
    <style>
      .st0 {
        stroke: #f45d4f;
        stroke-width: 5.98px;
      }

      .st0, .st1 {
        fill: none;
        stroke-linecap: round;
        stroke-linejoin: round;
      }

      .st2 {
        fill: #f45f4f;
      }

      .st3 {
        fill: #f55f50;
      }

      .st1 {
        stroke: #f55f4f;
        stroke-width: 5.43px;
      }

      .st4 {
        fill: #f45f50;
      }

      .st5 {
        fill: #f45d4f;
      }
    </style>
  </defs>
  <g id="Generative_Object">
    <g>
      <path class="st0" d="M116.66,181.42c-4.49,1.52-8.96,3.72-13.58,4.78-8.4,1.93-17.06,1.8-24.99-1.96-1.29-.61-2.59-1.06-3.8-1.85-12.65-8.26-13.55-20.07-13.1-33.77-.92.4-18.06-.09-20.04-.35-5.93-.76-12.33-2.39-17.39-5.76-12.01-8-17.69-22.94-12.39-36.62,1.3-3.36,4.08-6.29,5.11-9.24,1.96-5.63-.25-9.18,5.11-15.76,4.26-5.23,5.82-7.17,9.67-12.5,12.16-16.81,15.22-9.91,27.27-16.95,8.21-4.8,10.09-9.36,21.19-12.6,5.07-1.48,11.67-.67,15.21-1.63,21.14-5.72,16.88-10.2,42.38-6.63,2.89.41,7.66,1.75,10.85,2.43,2.3.49,5.11.09,7.08.5,9.05,1.85,11.1,5.47,17.93,8.26,3.83,1.57,8.93.94,14.13,3.69,7.28,3.85,8.99,8.43,14.13,12.17,2.36,1.72,6.88,2.46,10.32,5.22,8.46,6.77,7.28,11.43,12.06,18.04,2.54,3.5,6.13,5.29,9.02,10.32,3.23,5.64,2.29,11.79,4.45,16.3,2.02,4.2,5.25,6.91,7.28,12.5,5.98,16.44-1.17,36.33-19.47,40.37-.16.04-.32.07-.48.1-5.76,1.18-13.42-.34-19.39.27-20.79,2.12-41.11,8.34-61.29,13.49-.18.05-.36.09-.53.14-7.31,1.87-14.62,3.8-21.92,5.75-1.6.43-3.21.84-4.81,1.26h0Z"/>
      <path class="st0" d="M225.32,162.95c.01.72-.02,1.45,0,2.17.7,28.34-31.46,44.88-55.93,34.54-.16-.07-.33-.13-.49-.2-7.89-3.47-18.83-11.96-22.79-19.67-.09-.17-.13-.37-.22-.54-.1-.21-.35-.34-.43-.54-.22-.5-.24-1.43-.8-1.97"/>
      <path class="st5" d="M69.51,134.53l-16.63-8.01c-1.72-1.32-6.06-4.19-5.81-6.32,2.88-5.28,5.48-2.21,8.4.93l16.63,8.01c3.5,1.79,1.01,7.01-2.59,5.38h0Z"/>
      <path class="st0" d="M122.3,182.22c.92,1.03,1.33,2.45,2.08,3.54,5.96,8.72,16.84,15.15,23.8,23.36,3.22,3.8,8.62,15.77,11.95,16.95.61.22,12.71.95,13.01.38l-4.05-24.37"/>
      <path class="st2" d="M39.17,103.93c-2,3.09-3.95,6.65-5.65,10.01-.58,1.16-1.14,2.34-1.54,3.39-.54,1.4-2.11,2.1-3.51,1.56-1.4-.54-2.1-2.11-1.56-3.51,1.07-2.71,2.29-4.96,3.62-7.45,1.98-3.3,3.61-7.67,7.28-9.58,1.49-.29,3.84.8,3.84,2.3-.36.82-1.79,2.39-2.48,3.28h0Z"/>
      <path class="st4" d="M68.61,74.78c-6.96.01-11.66-2.04-15.08,5.64-.53,1.55-1.02,3.66-2.27,4.82-.46.46-1.54.77-2.05.46-.53-.3.1-1.38.13-1.59-.29-.52-.96-.33-1.3-1.09-.49-1.04-.03-3.73.63-5.02,1.04-2.08,2.46-4.44,4.42-6.11,2.76-2.49,7.09-2.93,10.41-2.75,1.71.02,3.41.24,5.08.2,1.5-.05,2.76,1.12,2.81,2.62.06,1.56-1.22,2.85-2.77,2.82h0Z"/>
      <path class="st1" d="M206.1,100.48c-.33.6.8,9.53-.56,13.57-5.01,14.97-14.88,16.35-27.47,19.87"/>
      <path class="st3" d="M236.43,121.35c.61-.23,1.19-1.12,1.26-1.53-.04.56-.04,2.09-.05,2.66.11,7.94-3.34,15.98-12.11,17.32-1.64.34-4.28-.33-5.42-.22-2.43-.14-6.24-2.48-6.01-4.54.7-2.23,3.83-1.35,5.57-.88,1.34-.13,2.81.15,3.96.27,4.94.18,7.95-4.16,8.36-8.84.34-2.13.11-4.52.34-6.7.32-2.71,3.8-3.76,5.25-1.21.7,1.33.18,2.97-1.15,3.67h0Z"/>
      <path class="st0" d="M85.81,167.66c33.93-36.2,11.84-110.37,11.84-110.37,0,0,64.18-4.68,64.18,32.93s-47.61,22.25-47.61,22.25c0,0,12.89,55.18,52.61,55.18"/>
    </g>
  </g>
</svg>